<svg width="30" height="31" viewBox="0 0 30 31" fill="none" xmlns="http://www.w3.org/2000/svg">
<path d="M4.73483 20.6134V17.5817H25.3551V20.6134M24.5192 8.18054H26.3385M24.1427 12.3529L25.4282 13.6396M24.1427 4.00945L25.4282 2.72266M5.57075 8.18054H3.75146M5.94728 12.3529L4.6605 13.6396M5.94728 4.00945L4.6605 2.72266M15.045 13.7639V20.0078M1.39844 26.956C1.39844 27.8004 1.7339 28.6103 2.33103 29.2074C2.92816 29.8046 3.73804 30.14 4.58251 30.14C5.42698 30.14 6.23686 29.8046 6.83399 29.2074C7.43112 28.6103 7.76658 27.8004 7.76658 26.956C7.76658 26.1115 7.43112 25.3016 6.83399 24.7045C6.23686 24.1074 5.42698 23.7719 4.58251 23.7719C3.73804 23.7719 2.92816 24.1074 2.33103 24.7045C1.7339 25.3016 1.39844 26.1115 1.39844 26.956ZM12.012 23.9498H18.0767V30.0145H12.012V23.9498ZM28.6915 30.0145H21.4131L25.0517 23.343L28.6915 30.0145ZM19.5938 7.3958C19.5952 6.57534 19.3747 5.76978 18.9556 5.06443C18.5366 4.35908 17.9345 3.78021 17.2133 3.38913C16.492 2.99805 15.6784 2.80932 14.8587 2.84292C14.0389 2.87653 13.2435 3.13123 12.5567 3.58004C11.8698 4.02885 11.3172 4.65506 10.9573 5.39235C10.5973 6.12963 10.4435 6.95054 10.5121 7.76813C10.5806 8.58571 10.869 9.36953 11.3468 10.0366C11.8245 10.7036 12.4737 11.229 13.2257 11.5571V13.7639H16.8643V11.5584C17.6748 11.2052 18.3647 10.6233 18.8495 9.88395C19.3343 9.14461 19.593 8.27992 19.5938 7.3958Z" stroke="#707070" stroke-width="1.46226" stroke-linecap="round" stroke-linejoin="round"/>
</svg>
