<svg width="26" height="26" viewBox="0 0 26 26" fill="none" xmlns="http://www.w3.org/2000/svg">
<rect x="1.24851" y="0.697728" width="24.0526" height="24.0526" rx="12.0263" stroke="#707070" stroke-width="0.604543"/>
<path d="M16.6738 10.7422C17.3637 10.7422 17.9394 10.9659 18.3447 11.4053C18.7523 11.8472 19.0215 12.5447 19.0215 13.5557V17.2246H17.3242V13.8223C17.3242 13.3299 17.2381 12.8676 17.002 12.5205C16.7525 12.1541 16.3622 11.9541 15.8564 11.9541C15.0573 11.9541 14.5916 12.4985 14.3955 12.9834C14.3104 13.1908 14.2969 13.4493 14.2969 13.6592V17.2246H12.6006C12.6014 17.0538 12.6024 16.8181 12.6035 16.5371C12.6059 15.9387 12.6084 15.1337 12.6104 14.3086C12.6135 12.9669 12.613 11.5589 12.6045 10.9053H14.2969V11.502L14.0703 11.9092H14.9014V11.6777C15.0391 11.475 15.2143 11.2577 15.4648 11.084C15.7406 10.8928 16.1225 10.7422 16.6738 10.7422ZM10.7217 10.9053V17.2246H9.02539V10.9053H10.7217ZM9.9082 7.37109C10.3957 7.37134 10.791 7.76638 10.791 8.25391C10.7908 8.74122 10.3955 9.13647 9.9082 9.13672C9.42091 9.13672 9.02564 8.74133 9.02539 8.25391C9.02539 7.76623 9.42053 7.37109 9.9082 7.37109Z" fill="#707070" stroke="#707070" stroke-width="0.604543"/>
</svg>
