<svg width="36" height="37" viewBox="0 0 36 37" fill="none" xmlns="http://www.w3.org/2000/svg">
<path d="M29.2158 6.26969H24.7478V4.03569C24.7478 3.83819 24.6693 3.64878 24.5297 3.50912C24.39 3.36947 24.2006 3.29102 24.0031 3.29102C23.8056 3.29102 23.6162 3.36947 23.4765 3.50912C23.3369 3.64878 23.2584 3.83819 23.2584 4.03569V6.26969H12.833V4.03569C12.833 3.83819 12.7546 3.64878 12.6149 3.50912C12.4753 3.36947 12.2859 3.29102 12.0884 3.29102C11.8909 3.29102 11.7015 3.36947 11.5618 3.50912C11.4222 3.64878 11.3437 3.83819 11.3437 4.03569V6.26969H6.87569C5.88856 6.27088 4.9422 6.66354 4.24419 7.36154C3.54619 8.05955 3.15353 9.00591 3.15234 9.99304V29.3545C3.15353 30.3416 3.54619 31.2879 4.24419 31.9859C4.9422 32.684 5.88856 33.0766 6.87569 33.0778H29.2158C30.2033 33.0778 31.1503 32.6855 31.8486 31.9873C32.5468 31.289 32.9391 30.3419 32.9391 29.3545V9.99304C32.9391 9.00555 32.5468 8.0585 31.8486 7.36024C31.1503 6.66197 30.2033 6.26969 29.2158 6.26969ZM31.4498 29.3545C31.4498 29.9469 31.2144 30.5152 30.7955 30.9341C30.3765 31.3531 29.8083 31.5885 29.2158 31.5885H6.87569C6.2832 31.5885 5.71497 31.3531 5.29601 30.9341C4.87705 30.5152 4.64168 29.9469 4.64168 29.3545V16.6951H31.4498V29.3545ZM31.4498 15.2057H4.64168V9.99304C4.64168 8.75987 5.63954 7.75903 6.87569 7.75903H11.3437V9.99304C11.3437 10.1905 11.4222 10.3799 11.5618 10.5196C11.7015 10.6593 11.8909 10.7377 12.0884 10.7377C12.2859 10.7377 12.4753 10.6593 12.6149 10.5196C12.7546 10.3799 12.833 10.1905 12.833 9.99304V7.75903H23.2584V9.99304C23.2584 10.1905 23.3369 10.3799 23.4765 10.5196C23.6162 10.6593 23.8056 10.7377 24.0031 10.7377C24.2006 10.7377 24.39 10.6593 24.5297 10.5196C24.6693 10.3799 24.7478 10.1905 24.7478 9.99304V7.75903H29.2158C29.8083 7.75903 30.3765 7.9944 30.7955 8.41336C31.2144 8.83232 31.4498 9.40055 31.4498 9.99304V15.2057Z" fill="#707070"/>
</svg>
