<svg width="53" height="53" viewBox="0 0 53 53" fill="none" xmlns="http://www.w3.org/2000/svg">
<path d="M11.2894 35.7538H7.22382C7.07483 35.7541 6.92724 35.7249 6.78953 35.6681C6.65181 35.6112 6.52669 35.5276 6.42133 35.4223C6.31597 35.3169 6.23246 35.1918 6.17557 35.0541C6.11869 34.9164 6.08955 34.7688 6.08985 34.6198V8.53828C6.08985 7.9089 6.59555 7.4043 7.22382 7.4043H45.7791C46.4085 7.4043 46.9131 7.91001 46.9131 8.53828V34.6198C46.9131 35.2492 46.4074 35.7538 45.7791 35.7538H28.9925" stroke="#D8D8D8" stroke-width="1.10417" stroke-linecap="round" stroke-linejoin="round"/>
<path d="M20.3156 29.805C24.0733 29.805 27.1195 26.7588 27.1195 23.0011C27.1195 19.2435 24.0733 16.1973 20.3156 16.1973C16.5579 16.1973 13.5117 19.2435 13.5117 23.0011C13.5117 26.7588 16.5579 29.805 20.3156 29.805Z" stroke="#D8D8D8" stroke-width="1.10417" stroke-linecap="round" stroke-linejoin="round"/>
<path d="M19.4602 7.4043V16.2454M32.8018 7.4043V35.7538M46.9131 21.5785H26.9741M6.08984 21.5785H13.5827M32.878 28.5447H46.9131M8.90547 45.5908H31.447C32.5468 26.6577 7.98791 25.8494 8.90547 45.5908Z" stroke="#D8D8D8" stroke-width="1.10417" stroke-linecap="round" stroke-linejoin="round"/>
</svg>
