<svg width="26" height="26" viewBox="0 0 26 26" fill="none" xmlns="http://www.w3.org/2000/svg">
<rect x="1.24851" y="1.24851" width="24.0526" height="24.0526" rx="12.0263" stroke="#707070" stroke-width="0.604543"/>
<path d="M10.4834 7.37109H16.0381C17.7561 7.37109 19.1494 8.76344 19.1494 10.4814V16.0361C19.1494 17.7541 17.7561 19.1475 16.0381 19.1475H10.4834C8.76539 19.1475 7.37305 17.7541 7.37305 16.0361V10.4814C7.37305 8.76344 8.76539 7.37109 10.4834 7.37109ZM10.498 7.7666C8.99098 7.7666 7.76855 8.98903 7.76855 10.4961V16.0225C7.76855 17.5295 8.99098 18.752 10.498 18.752H16.0244C17.5315 18.752 18.7539 17.5295 18.7539 16.0225V10.4961C18.7539 8.98903 17.5315 7.7666 16.0244 7.7666H10.498Z" fill="#707070" stroke="#707070" stroke-width="0.604543"/>
<path d="M13.2588 10.2988C14.8937 10.2988 16.2196 11.6239 16.2197 13.2588C16.2197 14.8938 14.8938 16.2197 13.2588 16.2197C11.6239 16.2196 10.2988 14.8937 10.2988 13.2588C10.2989 11.6239 11.6239 10.2989 13.2588 10.2988ZM13.2588 10.8291C11.9166 10.8292 10.8284 11.9167 10.8281 13.2588C10.8281 14.6009 11.9165 15.6894 13.2588 15.6895C14.6011 15.6895 15.6895 14.6009 15.6895 13.2588C15.6892 11.9166 14.601 10.8291 13.2588 10.8291Z" fill="#707070" stroke="#707070" stroke-width="0.604543"/>
<path d="M16.6338 9.45898H16.6348C16.8714 9.45902 17.0633 9.65042 17.0635 9.8877C17.0635 10.1249 16.871 10.3174 16.6338 10.3174C16.3968 10.3172 16.2051 10.1248 16.2051 9.8877C16.2053 9.65083 16.3969 9.45921 16.6338 9.45898Z" fill="#707070" stroke="#707070" stroke-width="0.604543"/>
</svg>
