<svg width="51" height="51" viewBox="0 0 51 51" fill="none" xmlns="http://www.w3.org/2000/svg">
<path d="M44.892 42.3917H41.305V21.587C41.305 21.0162 41.0782 20.4688 40.6746 20.0651C40.271 19.6615 39.7235 19.4348 39.1527 19.4348H26.9569V10.1085C26.9575 9.71864 26.8521 9.33592 26.6521 9.00125C26.4521 8.66658 26.1649 8.39252 25.8213 8.20836C25.4776 8.02419 25.0904 7.93684 24.701 7.95563C24.3116 7.97441 23.9345 8.09863 23.6102 8.31502L9.26215 17.8798C8.96707 18.0767 8.72523 18.3434 8.55814 18.6563C8.39105 18.9692 8.30389 19.3186 8.30442 19.6733V42.3917H4.7174C4.52714 42.3917 4.34466 42.4672 4.21012 42.6018C4.07558 42.7363 4 42.9188 4 43.1091C4 43.2993 4.07558 43.4818 4.21012 43.6163C4.34466 43.7509 4.52714 43.8265 4.7174 43.8265H44.892C45.0822 43.8265 45.2647 43.7509 45.3993 43.6163C45.5338 43.4818 45.6094 43.2993 45.6094 43.1091C45.6094 42.9188 45.5338 42.7363 45.3993 42.6018C45.2647 42.4672 45.0822 42.3917 44.892 42.3917ZM39.1527 20.8696C39.343 20.8696 39.5255 20.9452 39.66 21.0797C39.7946 21.2142 39.8701 21.3967 39.8701 21.587V42.3917H26.9569V20.8696H39.1527ZM9.73922 19.6751C9.73885 19.5567 9.76781 19.44 9.82352 19.3354C9.87922 19.2309 9.95994 19.1418 10.0585 19.0761L24.4065 9.51129C24.5146 9.43919 24.6402 9.39779 24.77 9.3915C24.8997 9.38521 25.0288 9.41428 25.1433 9.47559C25.2578 9.53691 25.3536 9.62818 25.4203 9.73965C25.487 9.85112 25.5222 9.97862 25.5221 10.1085V42.3917H9.73922V19.6751ZM21.2177 24.4566V27.3262C21.2177 27.5165 21.1421 27.6989 21.0075 27.8335C20.873 27.968 20.6905 28.0436 20.5003 28.0436C20.31 28.0436 20.1275 27.968 19.993 27.8335C19.8584 27.6989 19.7829 27.5165 19.7829 27.3262V24.4566C19.7829 24.2663 19.8584 24.0838 19.993 23.9493C20.1275 23.8148 20.31 23.7392 20.5003 23.7392C20.6905 23.7392 20.873 23.8148 21.0075 23.9493C21.1421 24.0838 21.2177 24.2663 21.2177 24.4566ZM15.4784 24.4566V27.3262C15.4784 27.5165 15.4029 27.6989 15.2683 27.8335C15.1338 27.968 14.9513 28.0436 14.761 28.0436C14.5708 28.0436 14.3883 27.968 14.2538 27.8335C14.1192 27.6989 14.0436 27.5165 14.0436 27.3262V24.4566C14.0436 24.2663 14.1192 24.0838 14.2538 23.9493C14.3883 23.8148 14.5708 23.7392 14.761 23.7392C14.9513 23.7392 15.1338 23.8148 15.2683 23.9493C15.4029 24.0838 15.4784 24.2663 15.4784 24.4566ZM15.4784 34.5002V37.3698C15.4784 37.5601 15.4029 37.7426 15.2683 37.8771C15.1338 38.0117 14.9513 38.0872 14.761 38.0872C14.5708 38.0872 14.3883 38.0117 14.2538 37.8771C14.1192 37.7426 14.0436 37.5601 14.0436 37.3698V34.5002C14.0436 34.31 14.1192 34.1275 14.2538 33.9929C14.3883 33.8584 14.5708 33.7828 14.761 33.7828C14.9513 33.7828 15.1338 33.8584 15.2683 33.9929C15.4029 34.1275 15.4784 34.31 15.4784 34.5002ZM21.2177 34.5002V37.3698C21.2177 37.5601 21.1421 37.7426 21.0075 37.8771C20.873 38.0117 20.6905 38.0872 20.5003 38.0872C20.31 38.0872 20.1275 38.0117 19.993 37.8771C19.8584 37.7426 19.7829 37.5601 19.7829 37.3698V34.5002C19.7829 34.31 19.8584 34.1275 19.993 33.9929C20.1275 33.8584 20.31 33.7828 20.5003 33.7828C20.6905 33.7828 20.873 33.8584 21.0075 33.9929C21.1421 34.1275 21.2177 34.31 21.2177 34.5002Z" fill="#D8D8D8"/>
</svg>
