<svg width="102" height="32" viewBox="0 0 102 32" fill="none" xmlns="http://www.w3.org/2000/svg">
<g clip-path="url(#clip0_391_883)">
<path fill-rule="evenodd" clip-rule="evenodd" d="M0 0.307495V31.6957H31.3601L15.6816 16.0032L31.3601 0.307495H0Z" fill="#D8D8D8"/>
<path fill-rule="evenodd" clip-rule="evenodd" d="M33.6138 0.357618V31.6392C33.6138 31.6674 33.6357 31.6894 33.6639 31.6894H48.913C58.1188 31.6894 65.5412 24.1474 64.9362 14.949C64.4002 6.77017 57.5985 0.301147 49.2922 0.301147H33.6639C33.6357 0.301147 33.6138 0.323108 33.6138 0.351344V0.357618Z" fill="#D8D8D8"/>
<path d="M73.9789 27.3788C70.8977 24.2949 69.3618 20.5051 69.3618 16C69.3618 11.4949 71.0231 7.43529 74.3487 4.33882C77.4706 1.44627 81.1379 0 85.3475 0C89.557 0 93.5189 1.56235 96.6534 4.68392C99.7878 7.80863 101.333 11.5827 101.333 16C101.333 20.4173 99.7345 24.3702 96.5374 27.4824C93.428 30.491 89.6949 32 85.3475 32C81 32 77.06 30.4627 73.9789 27.3788ZM75.9473 6.73255C73.4021 9.34274 72.1233 12.4298 72.1233 16C72.1233 19.5702 73.4146 22.8486 76.01 25.4463C78.5802 28.0314 81.6864 29.3365 85.3318 29.3365C88.9771 29.3365 92.0583 28.0314 94.6411 25.4337C97.2113 22.811 98.5027 19.6737 98.5027 16.0126C98.5027 12.3514 97.2239 9.35529 94.6662 6.7451C92.0834 4.08157 88.9615 2.75137 85.3443 2.75137C81.7272 2.75137 78.5395 4.08157 75.9567 6.7451L75.9441 6.73255H75.9473ZM79.0817 9.31765C80.6019 7.46039 82.6863 6.54118 85.3475 6.54118C87.0369 6.54118 88.507 6.88627 89.7482 7.57647C91.7699 8.70275 93.0362 10.6855 93.5221 13.5027L89.441 13.44C89.1997 12.1349 88.6731 11.2627 87.8801 10.8173C87.2156 10.3937 86.4853 10.1898 85.6923 10.1898C84.4886 10.1898 83.5044 10.6886 82.7365 11.6737C81.9685 12.6588 81.5861 14.1584 81.5861 16.1537C81.5861 18.149 82.0093 19.5702 82.8524 20.48C83.6956 21.3773 84.7206 21.8227 85.896 21.8227C86.9836 21.8227 87.8017 21.5278 88.3659 20.9255C88.9301 20.3357 89.2749 19.5827 89.441 18.6855H93.4061C92.9704 21.2078 91.9862 22.9616 90.466 23.9718C88.9427 24.982 87.3566 25.4808 85.7205 25.4808C83.2913 25.4808 81.1943 24.6118 79.4171 22.8706C77.6399 21.1294 76.756 18.8518 76.756 16.0345C76.756 13.3992 77.5239 11.1592 79.0566 9.30196L79.0817 9.31451V9.31765Z" fill="#D8D8D8"/>
</g>
<defs>
<clipPath id="clip0_391_883">
<rect width="101.333" height="32" fill="white"/>
</clipPath>
</defs>
</svg>
